<svg enable-background="new 0 0 140 140" height="512" viewBox="0 0 140 140" width="512" xmlns="http://www.w3.org/2000/svg"><circle cx="70" cy="70" fill="#4da0dc" r="64"/><path d="m96.6467285 40.1582451-.0799561-.0800781h-.0100098c-.7700195-.6899414-1.7700195-1.119873-2.8900146-1.119873h-5.2199707l-11.4800415-11.4799825h-13.8699951v11.4799824h-16.6699829c-2.3900146 0-4.3400269 1.9499512-4.3400269 4.3400879v45.4099083h-.0999756v19.4699707c0 .9399414.3099976 1.8100586.8200073 2.5200195l.039978.0400391c.25.3500977.5599976.6599121.9100342.9199219l22.2014771 22.2016678c1.3378296.083252 2.6828613.1401367 4.041748.1401367 32.9420776 0 60.0595093-24.8920975 63.5976562-56.8908768l-36.7908934-36.7907677c-.0499878-.0500488-.1000366-.1101074-.1600342-.1601562z" opacity=".1"/><path d="m93.6669083 38.9590569h-47.2352944c-2.3989258 0-4.343689 1.9445801-4.343689 4.34375v64.8759766c0 2.3989258 1.9447632 4.34375 4.343689 4.34375h47.2352943c2.3989868 0 4.343689-1.9448242 4.343689-4.34375v-64.8759766c0-2.39917-1.9447021-4.34375-4.3436889-4.34375z" fill="#ededed"/><path d="m41.9894066 88.7100296v19.46875c0 2.3989258 1.9447632 4.34375 4.343689 4.34375h47.2352867c2.3989868 0 4.343689-1.9448242 4.343689-4.34375v-19.46875z" fill="#de594e"/><path d="m66.285049 72.642319h7.512024v8.830643h-7.512024z" fill="#d6b24e"/><path d="m85.836441 89.2906418c-.3128967-2.9726105-.7219543-4.7916412-.9908676-5.752594-.1597214-.5708466-.5017853-1.0690079-.9704361-1.4319611-3.9453812-3.0556183-9.8370819-4.8685074-9.8370819-4.8685074l-3.9893646 4.2354889v.0024109l-3.9882202-4.23423s-5.8917542 1.8128357-9.8370819 4.8685074c-.4686508.3629608-.8107109.8610611-.9704285 1.4319687-.2689171.9608383-.6779747 2.7799835-.9909286 5.752533-.5092392 4.8381958-.2545624 8.3182602-.2545624 8.3182602l16.0412216-.0036163h16.042366c0-.0000001.2546768-3.4801255-.2546158-8.3182603z" fill="#293b44"/><path d="m75.2118378 77.6389389c-.7279434-.2643127-1.1736679-.4009399-1.1736679-.4009399l-3.9891434 4.2359924v.0014267l-3.9879608-4.2344894s-.4457245.1366272-1.1736679.4009399c-.5509872.1971054-1.2632599.4658661-2.0651093.8040848l.4817619 5.9982834.8434563 1.4205627.221962 1.820076c1.8859406 7.2973633 5.6803589 9.9231262 5.6803589 9.9231262l.0003815.0003967c.0253143-.0176086 3.7999573-2.6536102 5.6795883-9.9264526l.2219543-1.8200989.8434372-1.4205627.4817581-5.9982529c-.8018493-.3382187-1.514122-.606987-2.0651092-.8040924z" fill="#dbd8dd"/><path d="m70.8614502 81.4729614h-1.7386017l-.8692932 1.4105606.8692932 2.4581528h1.7386017l.8693008-2.4581528z" fill="#4abba4"/><path d="m73.8141937 76.3545609-3.7655029 5.1185226 2.6339035 3.1519623 3.0456314-6.7805863z" fill="#ededed"/><path d="m66.2850494 76.3574905 3.765503 5.1185303-2.6339035 3.1519623-3.0456314-6.7805862z" fill="#ededed"/><path d="m71.4645004 96.3013-1.4142914 1.3070984-1.5267944-1.8107071.5801163-10.6628952h1.7772446z" fill="#4abba4"/><path d="m63.4068871 86.2136612-.6562805 1.3931885c1.8859444 7.2973328 7.299221 10.001152 7.299221 10.001152-4.7036285-6.9793015-5.1266022-18.3198624-5.1624222-19.9661255-.0044861-.1321411-.0044861-.2015915-.0044861-.2015915l-2.0606232 1.0056763-.8086014 6.7844391z" fill="#344d5b"/><path d="m76.6923523 86.2107239.6562805 1.3931885c-1.8859406 7.2973404-7.2996063 10.0053024-7.2996063 10.0053024 4.7036362-6.9792938 5.1269913-18.3240128 5.1628113-19.9702759.0044785-.1321411.0044785-.2015915.0044785-.2015915l2.0606308 1.0056839.8086014 6.7844315z" fill="#344d5b"/><path d="m78.4794159 65.9799271c-.5404053-.10466-1.1328506.6074905-1.3232346 1.5905685-.1903915.9831238.0933685 1.8649597.6337738 1.9696121.5404282.10466 1.1328506-.6074905 1.3232422-1.5906219.1903839-.9830704-.0933532-1.8649063-.6337814-1.9695587z" fill="#feda6f"/><path d="m61.7415962 65.9799271c.5404015-.10466 1.1328506.6074905 1.3232346 1.5905685.1903877.9831238-.0933685 1.8649597-.6337738 1.9696121-.5404282.10466-1.1328545-.6074905-1.3232422-1.5906219-.1903839-.9830704.0933494-1.8649063.6337814-1.9695587z" fill="#feda6f"/><path d="m78.0406647 64.3385391c0 .8875732.39534 1.8440475.1373596 2.8553238-1.0731964 4.3237686-4.2825775 9.1636276-8.0697784 9.1636276-3.7459412 0-6.9140053-4.6952438-8.0284576-8.9676132-.2889709-1.0834656-.4437256-2.1360626-.4437256-3.0751648 0-4.5197716 3.9987946-5.1572914 8.4670486-5.4049492.1238327-.0103264-.0717926-.9511566.0520401-.9511566l-.0258255.5721855c.1857452 0 .5399246-.966301.7256622-.9559708.1547546.0103302.2628937 1.0065269.4176483 1.0271873.0929031 0-.3750305-.6074982-.2821884-.5869637 4.0658417.6294672 7.0502167 2.0822336 7.0502167 6.3234941z" fill="#fcd462"/><g fill="#344d5b"><path d="m79.0069733 59.9191933c-.4637604-2.7826004-3.2713776-1.9267731-3.2713776-1.9267731l-.0035324.0069656c-.0018845-.0017281-.0037384-.0033531-.0056458-.005085l.0091782-.0018806s.5726929-.5744667-.2075653-2.1395988c-.7802734-1.5650787-4.7140503-2.6054153-8.4852829-1.5650787-3.7712555 1.0403862-5.4371834 3.4146233-6.0873795 7.413475-.5440369 3.3458328.6064224 5.0702515.997654 5.545784l.5200424 1.6421051h.4558258l1.102787-6.2776527c2.2156067-1.610836 7.0442886-.774147 10.3547897-3.3515511.5207977 2.0561676-.4341888 2.9414673 2.4251328 7.7007523l.3889923 1.9284515h.4558258l.4247665-1.3412704c.0013962.0005569.0026398.0011673.0040436.0017242.8091813-2.2893754 1.3855286-4.8477135.9217454-7.6303673z"/><path d="m57.006683 101.472725h1.02848v7.285069h-1.02848z"/><path d="m62.164917 101.472725h.51424v7.285069h-.51424z"/><path d="m59.293751 101.472725h1.766035v7.285069h-1.766035z"/><path d="m63.883881 101.472725h1.02848v7.285069h-1.02848z"/><path d="m69.042114 101.472725h.51424v7.285069h-.51424z"/><path d="m66.170944 101.472725h1.766035v7.285069h-1.766035z"/><path d="m70.345131 101.472725h1.02848v7.285069h-1.02848z"/><path d="m75.503357 101.472725h.51424v7.285069h-.51424z"/><path d="m72.632195 101.472725h1.766035v7.285069h-1.766035z"/><path d="m77.222321 101.472725h1.02848v7.285069h-1.02848z"/><path d="m82.380554 101.472725h.51424v7.285069h-.51424z"/><path d="m79.509384 101.472725h1.766035v7.285069h-1.766035z"/><path d="m62.025078 44.936256h16.048368v2.528916h-16.048368z"/></g><path d="m63.097664 27.477387h13.872554v18.723328h-13.872554z" fill="#de594e"/><path d="m70.033905 30.3816643c-1.9619141 0-3.5523682 1.5905762-3.5523682 3.5524902s1.5904541 3.5524902 3.5523682 3.5524902 3.5524292-1.5905762 3.5524292-3.5524902-1.5905151-3.5524902-3.5524292-3.5524902z" fill="#ededed"/></svg>